HIERARCHY
ROOT Hips
{
	OFFSET 0.00000 0.00000 0.00000
	CHANNELS 6 Xposition Yposition Zposition Zrotation Yrotation Xrotation 
	JOINT LHipJoint
	{
		OFFSET 0 0 0
		CHANNELS 3 Zrotation Yrotation Xrotation
		JOINT LeftUpLeg
		{
			OFFSET 1.41496 -1.84582 0.78394
			CHANNELS 3 Zrotation Yrotation Xrotation
			JOINT LeftLeg
			{
				OFFSET 2.58040 -7.08960 0.00000
				CHANNELS 3 Zrotation Yrotation Xrotation
				JOINT LeftFoot
				{
					OFFSET 2.64719 -7.27309 0.00000
					CHANNELS 3 Zrotation Yrotation Xrotation
					JOINT LeftToeBase
					{
						OFFSET 0.20718 -0.56921 2.20259
						CHANNELS 3 Zrotation Yrotation Xrotation
						End Site
						{
							OFFSET 0.00000 -0.00000 1.14243
						}
					}
				}
			}
		}
	}
	JOINT RHipJoint
	{
		OFFSET 0 0 0
		CHANNELS 3 Zrotation Yrotation Xrotation
		JOINT RightUpLeg
		{
			OFFSET -1.40551 -1.84582 0.78394
			CHANNELS 3 Zrotation Yrotation Xrotation
			JOINT RightLeg
			{
				OFFSET -2.56572 -7.04926 0.00000
				CHANNELS 3 Zrotation Yrotation Xrotation
				JOINT RightFoot
				{
					OFFSET -2.57974 -7.08778 0.00000
					CHANNELS 3 Zrotation Yrotation Xrotation
					JOINT RightToeBase
					{
						OFFSET -0.26704 -0.73369 2.20815
						CHANNELS 3 Zrotation Yrotation Xrotation
						End Site
						{
							OFFSET -0.00000 -0.00000 1.16246
						}
					}
				}
			}
		}
	}
	JOINT LowerBack
	{
		OFFSET 0 0 0
		CHANNELS 3 Zrotation Yrotation Xrotation
		JOINT Spine
		{
			OFFSET -0.04690 2.05196 -0.07017
			CHANNELS 3 Zrotation Yrotation Xrotation
			JOINT Spine1
			{
				OFFSET 0.04085 2.05260 0.00800
				CHANNELS 3 Zrotation Yrotation Xrotation
				JOINT Neck
				{
					OFFSET 0 0 0
					CHANNELS 3 Zrotation Yrotation Xrotation
					JOINT Neck1
					{
						OFFSET -0.03582 1.80995 0.19301
						CHANNELS 3 Zrotation Yrotation Xrotation
						JOINT Head
						{
							OFFSET 0.00952 1.80195 -0.36389
							CHANNELS 3 Zrotation Yrotation Xrotation
							End Site
							{
								OFFSET 0.00392 1.85062 -0.14494
							}
						}
					}
				}
				JOINT LeftShoulder
				{
					OFFSET 0 0 0
					CHANNELS 3 Zrotation Yrotation Xrotation
					JOINT LeftArm
					{
						OFFSET 3.55224 1.39726 -0.13667
						CHANNELS 3 Zrotation Yrotation Xrotation
						JOINT LeftForeArm
						{
							OFFSET 5.14507 -0.00000 -0.00000
							CHANNELS 3 Zrotation Yrotation Xrotation
							JOINT LeftHand
							{
								OFFSET 3.50646 -0.00000 0.00000
								CHANNELS 3 Zrotation Yrotation Xrotation
								JOINT LeftFingerBase
								{
									OFFSET 0 0 0
									CHANNELS 3 Zrotation Yrotation Xrotation
									JOINT LeftHandIndex1
									{
										OFFSET 0.62997 -0.00000 0.00000
										CHANNELS 3 Zrotation Yrotation Xrotation
										End Site
										{
											OFFSET 0.50790 -0.00000 0.00000
										}
									}
								}
								JOINT LThumb
								{
									OFFSET 0 0 0
									CHANNELS 3 Zrotation Yrotation Xrotation
									End Site
									{
										OFFSET 0.51565 -0.00000 0.51565
									}
								}
							}
						}
					}
				}
				JOINT RightShoulder
				{
					OFFSET 0 0 0
					CHANNELS 3 Zrotation Yrotation Xrotation
					JOINT RightArm
					{
						OFFSET -3.06467 1.61290 -0.28813
						CHANNELS 3 Zrotation Yrotation Xrotation
						JOINT RightForeArm
						{
							OFFSET -5.23200 -0.00000 -0.00000
							CHANNELS 3 Zrotation Yrotation Xrotation
							JOINT RightHand
							{
								OFFSET -3.65641 -0.00000 0.00000
								CHANNELS 3 Zrotation Yrotation Xrotation
								JOINT RightFingerBase
								{
									OFFSET 0 0 0
									CHANNELS 3 Zrotation Yrotation Xrotation
									JOINT RightHandIndex1
									{
										OFFSET -0.65681 -0.00000 0.00000
										CHANNELS 3 Zrotation Yrotation Xrotation
										End Site
										{
											OFFSET -0.52953 -0.00000 0.00000
										}
									}
								}
								JOINT RThumb
								{
									OFFSET 0 0 0
									CHANNELS 3 Zrotation Yrotation Xrotation
									End Site
									{
										OFFSET -0.53762 -0.00000 0.53762
									}
								}
							}
						}
					}
				}
			}
		}
	}
}
MOTION
Frames: 11
Frame Time: 0.0465116
0.00 0.00 0.00 0 0 0 0 0 0 -21 0 0 0 0 0 0 0 0 0 0 0 0 0 0 21 0 0 0 0 0 0 0 0 0 0 0 0 0 0 0 0 0 0 0 0 0 0 -16 0 0 21 0 0 11 0 0 0 -8 0 0 0 0 0 0 0 0 0 0 0 0 0 0 0 0 0 0 0 0 8 0 0 0 0 0 0 0 0 0 0 0 0 0 0 0 0 0
0.00 0.00 0.00 -1.2469 -5.4600 30.3454 0.0000 0.0000 0.0000 -9.1451 -15.8590 -75.0824 14.5106 19.2617 73.7580 1.5752 -11.2309 -22.6671 0.0025 -0.3206 -0.8809 0.0000 0.0000 0.0000 21.3267 -2.6848 2.8062 -1.9484 -8.7578 25.0406 0.1902 -12.5808 6.0210 -4.2080 12.4322 -37.2785 1.8252 3.6473 18.4856 -1.7046 4.9956 0.8204 -4.1727 2.2547 -9.1454 -4.2654 -3.8563 -17.6832 1.2113 -4.3109 -3.0286 0.8263 -2.0846 2.1907 -0.0000 -0.0000 0.0000 -84.4817 39.6857 32.4726 101.8428 -59.4634 -70.2376 -0.0000 0.0000 -11.0711 23.6582 -13.0421 -5.6462 -7.1250 0.0000 -0.0000 -2.5208 15.7966 1.7411 -0.0000 -0.0000 0.0000 83.1429 2.1434 46.8926 -111.1449 58.2413 -78.2039 0.0000 -0.0000 -0.7596 -20.7830 1.1724 -0.4449 7.1250 -0.0000 -0.0000 4.5031 -28.7142 1.7909
0.00 0.00 0.00 0.3656 -4.1367 31.0891 0.0000 0.0000 0.0000 -11.9413 -17.1840 -69.4837 14.5073 19.2607 73.7480 2.3229 -11.4525 -27.4563 0.0422 -1.3263 -3.6471 0.0000 0.0000 0.0000 19.9799 -0.9475 -7.9559 -5.7575 -14.1891 44.0005 0.2154 -12.8748 5.8969 -1.9280 8.7145 -24.9061 0.2171 2.9824 18.9345 -1.8025 3.7722 0.7884 -3.0961 1.7268 -9.6214 -3.9204 -3.7970 -17.7736 1.5695 -4.3075 -4.0183 0.8882 -2.0662 1.8669 0.0000 -0.0000 0.0000 -86.8702 33.2805 32.3330 95.2629 -59.8951 -64.5562 -0.0000 0.0000 -10.7710 24.9855 -13.7940 -6.3401 -7.1250 0.0000 -0.0000 -1.6580 14.8286 1.1790 0.0000 -0.0000 0.0000 84.2551 -1.4469 45.1706 -99.4775 59.6579 -68.1983 0.0000 -0.0000 -3.2662 -21.6905 0.4110 -0.1635 7.1250 -0.0000 -0.0000 3.8246 -29.5273 1.4459
0.00 0.00 0.00 2.7088 -3.3873 31.2425 0.0000 0.0000 0.0000 -15.9183 -18.1291 -62.6177 14.1529 19.1597 72.6708 3.0100 -11.4131 -31.3186 0.1280 -2.3064 -6.3531 0.0000 0.0000 0.0000 16.9882 0.5508 -19.5826 -11.0041 -17.9371 62.7950 0.4649 -12.0719 -2.8613 -1.8776 8.6062 -24.5712 -2.0080 2.2128 19.4910 -2.0831 2.2365 0.7792 -1.7585 1.0892 -10.0900 -3.5301 -3.5396 -17.3692 1.8481 -4.0639 -4.8136 0.9375 -1.9389 1.5171 0.0000 -0.0000 0.0000 -88.2239 25.2505 34.6027 89.8488 -59.9999 -59.8691 -0.0000 0.0000 -11.8826 25.3821 -15.2034 -7.0925 -7.1250 0.0000 -0.0000 -1.4947 13.2430 1.1130 0.0000 -0.0000 0.0000 86.3127 -5.7493 42.2573 -82.2828 59.7738 -53.3218 0.0000 -0.0000 -6.2545 -23.0303 -0.1338 0.0569 7.1250 -0.0000 -0.0000 2.7903 -30.1192 1.0145
0.00 0.00 0.00 4.9281 -2.6675 30.7040 0.0000 0.0000 0.0000 -19.9445 -18.0938 -54.8411 13.6387 19.0008 71.0980 3.4377 -12.4134 -33.5577 0.2404 -3.1556 -8.7121 0.0000 0.0000 0.0000 13.0551 1.9996 -32.8979 -16.3904 -19.6847 79.3927 0.3443 -12.4302 -11.9477 -1.9611 8.7846 -25.1238 -3.7892 1.2194 20.0640 -2.3674 0.4812 0.8336 -0.5805 0.3423 -10.3800 -3.1948 -3.1720 -17.0351 2.3928 -3.6579 -5.1735 1.0879 -1.7269 1.3355 0.0000 0.0000 0.0000 -88.6457 16.5412 38.6245 89.4610 -59.9989 -59.5332 -0.0000 0.0000 -11.8905 25.7393 -16.1720 -7.6479 -7.1250 0.0000 -0.0000 -1.3368 12.1380 1.0261 0.0000 0.0000 0.0000 88.4211 -11.2652 37.8510 -66.0037 57.7083 -39.3785 0.0000 -0.0000 -10.5055 -24.7748 -0.7340 0.3387 7.1250 -0.0000 -0.0000 1.4249 -30.7864 0.4949
0.00 0.00 0.00 6.3746 -1.1838 29.6463 0.0000 0.0000 0.0000 -23.0917 -16.3457 -44.5627 12.8062 18.7111 68.5224 3.6723 -15.2225 -34.8571 0.4270 -4.1937 -11.6223 0.0000 0.0000 0.0000 8.8127 3.9806 -50.7592 -20.9833 -19.9768 92.8761 -0.3301 -11.0406 -19.8278 -2.0863 9.0435 -25.9315 -4.6584 -0.2327 19.9592 -2.0756 -1.5784 0.7934 0.8195 -0.5724 -10.2883 -3.0861 -2.6613 -17.1251 2.8361 -3.0126 -4.6961 1.2541 -1.3938 1.5039 -0.0000 -0.0000 0.0000 -89.4864 7.5163 44.0942 105.6307 -59.0564 -73.4937 -0.0000 0.0000 -11.5654 26.3205 -16.3785 -7.9409 -7.1250 0.0000 -0.0000 -0.9693 11.8273 0.7501 -0.0000 -0.0000 0.0000 88.5734 -21.8247 33.4423 -60.6828 56.4892 -34.9098 0.0000 -0.0000 -12.1323 -28.1705 1.4045 -0.7521 7.1250 -0.0000 -0.0000 -1.2391 -28.3858 -0.5011
0.00 0.00 0.00 6.4763 -0.5131 29.0306 0.0000 0.0000 0.0000 -24.2282 -14.3200 -37.3647 11.6342 18.2317 64.8245 3.6483 -16.1142 -34.8211 0.7307 -5.4613 -15.2292 0.0000 0.0000 0.0000 6.7531 5.6384 -60.9981 -21.6709 -19.9329 94.8906 -0.6859 -9.3991 -21.7560 -2.3869 9.6292 -27.7842 -4.6990 -1.0968 19.1332 -1.4913 -2.6198 0.5267 1.7529 -1.0481 -10.0425 -2.9352 -2.0963 -17.2572 2.3962 -2.2916 -3.8974 1.1325 -1.0480 1.7646 -0.0000 0.0000 0.0000 -90.5692 3.6322 47.2217 121.9406 -55.7703 -87.2686 -0.0000 0.0000 -12.7222 26.2159 -16.6730 -8.0413 -7.1250 0.0000 -0.0000 -1.0659 11.5211 0.8316 -0.0000 0.0000 0.0000 87.0734 -30.4004 32.7434 -67.7876 58.0511 -40.8894 0.0000 -0.0000 -10.7404 -28.9629 3.8408 -2.1232 7.1250 -0.0000 -0.0000 -1.7616 -25.5916 -0.8282
0.00 0.00 0.00 5.8690 -0.5010 27.9525 0.0000 0.0000 0.0000 -25.1672 -10.9199 -25.8077 9.0149 16.8173 56.1416 2.9313 -16.5892 -31.3420 1.3937 -7.4687 -21.1117 0.0000 0.0000 0.0000 4.6998 8.4516 -71.3110 -19.7675 -19.9987 89.3203 -0.9508 -6.6987 -22.0128 -2.9166 10.5589 -30.8061 -4.2521 -2.1598 17.5605 -0.5296 -3.7666 -0.0388 2.7884 -1.5953 -9.6734 -2.3841 -0.8695 -17.2734 1.1520 -0.7465 -2.4061 0.7405 -0.3266 2.2173 0.0000 -0.0000 0.0000 -91.1784 -0.2512 51.2844 139.6597 -48.2702 -101.3072 -0.0000 0.0000 -14.3883 26.7420 -17.1195 -8.4367 -7.1250 0.0000 -0.0000 -0.7618 10.9515 0.6032 0.0000 -0.0000 0.0000 83.7464 -42.1408 33.8142 -84.1120 59.8686 -54.9031 0.0000 -0.0000 -11.6789 -28.8451 6.2387 -3.4253 7.1250 -0.0000 -0.0000 -1.5514 -22.8666 -0.8269
0.00 0.00 0.00 5.4305 -1.8902 26.0165 0.0000 0.0000 0.0000 -26.4346 -7.4639 -12.7506 6.0090 14.4371 45.0180 0.9447 -17.0614 -19.7095 2.0587 -8.9873 -25.7557 0.0000 0.0000 0.0000 3.1880 11.4062 -75.8460 -15.3730 -19.4788 76.3576 -1.0464 -3.3105 -20.7827 -3.6169 11.6323 -34.4434 -4.2372 -2.8182 16.3547 0.0899 -4.5315 -0.3877 3.5695 -1.9588 -9.2684 -1.8023 0.4735 -17.4765 0.0496 0.9741 -0.5949 0.4126 0.4762 2.8545 -0.0000 -0.0000 0.0000 -89.7735 -1.9815 55.1844 150.3030 -40.6323 -108.7882 -0.0000 0.0000 -15.6994 26.7206 -18.2415 -8.9548 -7.1250 0.0000 -0.0000 -0.8903 9.7281 0.7272 -0.0000 -0.0000 0.0000 81.0428 -51.3760 34.4067 -97.3654 59.7940 -66.3742 0.0000 -0.0000 -11.7617 -28.6443 8.2759 -4.4955 7.1250 -0.0000 -0.0000 -1.2792 -20.5702 -0.7484
0.00 0.00 0.00 5.9378 -3.5663 24.2903 0.0000 0.0000 0.0000 -28.2687 -6.1769 -3.7471 4.2029 12.4256 37.2549 -0.5773 -15.0668 -1.9901 1.8399 -8.5244 -24.3184 0.0000 0.0000 0.0000 2.3723 13.0069 -76.1298 -11.5359 -18.1875 64.5100 -0.7993 -0.6772 -17.1509 -4.3344 12.5925 -37.8617 -5.0609 -3.0403 15.6321 0.0914 -4.9444 -0.3813 4.0696 -2.1423 -8.7491 -1.4953 1.2938 -17.9372 -0.4179 2.0423 0.5032 0.3001 0.9774 3.3257 0.0000 -0.0000 0.0000 -87.8305 -1.4912 57.9360 154.5785 -36.6317 -111.4598 -0.0000 0.0000 -15.3190 26.4426 -19.4248 -9.3915 -7.1250 0.0000 -0.0000 -1.1968 8.4868 1.0073 0.0000 -0.0000 0.0000 81.2728 -55.4033 32.8122 -102.5051 59.4008 -70.8079 0.0000 -0.0000 -10.0527 -28.7631 9.3489 -5.0955 7.1250 -0.0000 -0.0000 -1.2891 -19.3447 -0.7895
0.00 0.00 0.00 7.1312 -5.2510 22.7010 0.0000 0.0000 0.0000 -30.9749 -6.6342 3.0767 3.1627 10.9538 32.1243 0.2577 -9.3459 17.0976 0.6980 -5.3406 -14.8825 0.0000 0.0000 0.0000 2.4981 13.5588 -74.7641 -8.2928 -16.3304 53.6105 -0.3494 0.6927 -10.9439 -4.6448 12.9723 -39.2648 -6.3840 -3.1285 14.9302 -0.2164 -5.2790 -0.3268 4.4876 -2.2823 -8.1745 -1.2745 1.8704 -18.5208 -0.7201 2.7972 1.2955 0.2379 1.3285 3.7249 0.0000 0.0000 0.0000 -85.9660 0.2637 59.5499 155.8709 -35.3005 -112.2190 -0.0000 0.0000 -13.7782 26.2631 -20.0707 -9.6110 -7.1250 0.0000 -0.0000 -1.3831 7.8178 1.1825 0.0000 0.0000 0.0000 83.5145 -56.5754 29.6827 -104.4395 59.1973 -72.4712 0.0000 -0.0000 -9.0604 -29.1258 9.5622 -5.2881 7.1250 -0.0000 -0.0000 -1.5304 -19.0668 -0.9468
